PathFileType	4	(X/Y/Z)	/Users/itak/Documents/Research/Walk-IL/dataset/trc/00068_00006.trc
DataRate	CameraRate	NumFrames	NumMarkers	Units	OrigDataRate	OrigDataStartFrame	OrigNumFrames
100.000000	100.000000	4	53	mm	100.000000	441	706
Frame#	Time	RPSI			LPSI			L3			STRN			T10			C7			CLAV			RBAK			LBAK			LSHO			LUPA			LAEL			LAOL			LWTS			LWPS			LFRA			LIFD			LHPS			LHTS			RSHO			RUPA			RAEL			RAOL			RWTS			RWPS			RFRA			RIFD			RHTS			RHPS			RBHD			LFHD			RFHD			LBHD			LHIP			RHIP			RASI			LASI			LKNE			LTHI			LANK			LTIP			LTOE			LMT1			LMT5			LHEE			RKNE			RTHI			RANK			RTIP			RTOE			RMT1			RMT5			RHEE			
		X1	Y1	Z1	X2	Y2	Z2	X3	Y3	Z3	X4	Y4	Z4	X5	Y5	Z5	X6	Y6	Z6	X7	Y7	Z7	X8	Y8	Z8	X9	Y9	Z9	X10	Y10	Z10	X11	Y11	Z11	X12	Y12	Z12	X13	Y13	Z13	X14	Y14	Z14	X15	Y15	Z15	X16	Y16	Z16	X17	Y17	Z17	X18	Y18	Z18	X19	Y19	Z19	X20	Y20	Z20	X21	Y21	Z21	X22	Y22	Z22	X23	Y23	Z23	X24	Y24	Z24	X25	Y25	Z25	X26	Y26	Z26	X27	Y27	Z27	X28	Y28	Z28	X29	Y29	Z29	X30	Y30	Z30	X31	Y31	Z31	X32	Y32	Z32	X33	Y33	Z33	X34	Y34	Z34	X35	Y35	Z35	X36	Y36	Z36	X37	Y37	Z37	X38	Y38	Z38	X39	Y39	Z39	X40	Y40	Z40	X41	Y41	Z41	X42	Y42	Z42	X43	Y43	Z43	X44	Y44	Z44	X45	Y45	Z45	X46	Y46	Z46	X47	Y47	Z47	X48	Y48	Z48	X49	Y49	Z49	X50	Y50	Z50	X51	Y51	Z51	X52	Y52	Z52	X53	Y53	Z53	

442	4.41	504.8032836914062	999.4345703125	-167.23974609375	635.40673828125	989.3264770507812	-285.9017944335938	573.9166259765625	1051.0224609375	-224.620361328125	745.57470703125	1249.011474609375	-33.83126831054688	564.7042846679688	1185.620483398438	-237.0617828369141	605.0921630859375	1451.977905273438	-189.5961456298828	726.5234375	1363.930541992188	-56.46955490112305	507.8711242675781	1313.866821289062	-190.1102752685547	660.4749145507812	1416.632568359375	-273.2884216308594	781.9798583984375	1424.840698242188	-252.2436065673828	816.8128051757812	1309.08203125	-337.9663391113281	842.123046875	1100.172241210938	-377.3129272460938	740.3125	1077.704956054688	-344.93505859375	891.5611572265625	858.624755859375	-284.7798461914062	878.8375854492188	850.2535400390625	-367.7821044921875	867.2578735351562	991.1201171875	-379.1912231445312	893.0853271484375	673.3533325195312	-271.4976196289062	907.9657592773438	770.4644775390625	-349.2352600097656	915.7735595703125	776.73291015625	-278.5273742675781	516.8844604492188	1415.108154296875	-29.76433944702148	457.5330200195312	1350.026489257812	-1.152478337287903	385.5641479492188	1094.559692382812	-2.214565753936768	470.2672424316406	1065.44873046875	-46.99285507202148	536.307373046875	864.3737182617188	97.5313720703125	456.0155029296875	835.0158081054688	81.07996368408203	390.7414245605469	1010.763366699219	20.24205207824707	585.2291259765625	680.6190795898438	93.02780151367188	568.3598022460938	765.4985961914062	118.1027603149414	493.0327453613281	750.1203002929688	110.8890762329102	723.833251953125	1642.58642578125	-170.6871643066406	616.5885009765625	1647.062377929688	16.14472389221191	739.998779296875	1669.346069335938	4.973885059356689	590.5272216796875	1611.690795898438	-150.3251495361328	775.697021484375	930.0745239257812	-257.76708984375	481.9660339355469	924.8651123046875	-70.82281494140625	579.3212890625	936.4102783203125	13.68637847900391	798.5744018554688	940.0321655273438	-138.5752410888672	863.1362915039062	512.7783813476562	-48.88850402832031	854.5894165039062	632.3198852539062	-136.8064727783203	932.7699584960938	36.84207534790039	-68.49181365966797	909.6552734375	267.0030212402344	-64.23491668701172	972.5239868164062	63.39443206787109	128.8796844482422	910.247314453125	55.01320266723633	97.6317138671875	991.6351928710938	37.87947082519531	22.32944107055664	846.2664794921875	32.05478668212891	-99.60736083984375	554.6885986328125	476.7920532226562	-119.970947265625	534.7254638671875	737.6017456054688	-38.75520324707031	377.8199768066406	95.16902160644531	-386.8078308105469	511.5271911621094	366.3120727539062	-178.0847473144531	571.7988891601562	31.86065673828125	-348.3560485839844	541.0783081054688	56.18062591552734	-396.3711853027344	471.8319091796875	41.77317810058594	-327.654541015625	373.7326354980469	136.9755401611328	-445.9802551269531	
443	4.42	512.0151977539062	1001.012512207031	-160.6461181640625	643.4291381835938	991.1940307617188	-278.2076721191406	581.721435546875	1052.402587890625	-217.4985504150391	752.406982421875	1250.691772460938	-25.60649871826172	573.1566772460938	1186.767822265625	-230.8078002929688	613.909423828125	1453.25	-183.6924591064453	733.634765625	1365.580322265625	-48.81147766113281	516.4161987304688	1315.337524414062	-185.0766754150391	670.3975830078125	1417.711059570312	-266.4043273925781	791.595947265625	1426.002563476562	-244.0038604736328	827.7318725585938	1310.0703125	-328.9765014648438	853.7166748046875	1101.052124023438	-367.3177490234375	751.5492553710938	1078.5693359375	-336.0543518066406	902.166259765625	859.4105834960938	-274.3693542480469	890.3450317382812	851.163330078125	-357.538818359375	878.8661499023438	992.013671875	-368.9250183105469	903.5750122070312	674.2088012695312	-261.4277954101562	919.2201538085938	771.2263793945312	-338.6896667480469	926.3640747070312	777.4935302734375	-267.9666137695312	523.7151489257812	1417.0849609375	-24.91942977905273	463.9732360839844	1352.081909179688	2.978314399719238	391.7723083496094	1097.021362304688	0.07667567580938339	477.3748474121094	1067.774536132812	-43.18901062011719	537.9330444335938	864.0804443359375	100.3364944458008	457.4800109863281	836.1275024414062	82.39842224121094	395.7069702148438	1013.180725097656	21.94596672058105	583.7412109375	679.51953125	94.85939025878906	568.0856323242188	764.4542236328125	120.484130859375	492.7174987792969	750.4356689453125	112.1449432373047	732.0905151367188	1644.302978515625	-163.3357391357422	621.9601440429688	1648.397338867188	21.9012393951416	745.4510498046875	1670.826782226562	12.66422271728516	598.4884033203125	1613.157470703125	-145.0525817871094	783.4166870117188	931.7988891601562	-249.1442565917969	488.1339111328125	925.9767456054688	-64.45069885253906	585.0387573242188	937.908935546875	20.42392539978027	805.3832397460938	941.3770751953125	-129.7432098388672	868.6372680664062	513.1676025390625	-41.16530990600586	861.1162719726562	633.9166870117188	-127.9106903076172	933.9947509765625	36.15127944946289	-67.82733154296875	913.637939453125	266.7163391113281	-59.64399719238281	974.1795654296875	58.0748291015625	130.1661834716797	911.8143920898438	51.78647994995117	98.80136108398438	993.021484375	34.82612228393555	22.96192932128906	847.4279174804688	33.24505996704102	-99.16228485107422	563.090576171875	476.3456115722656	-106.9950866699219	541.52197265625	738.4476928710938	-30.59460830688477	381.7658081054688	102.0139846801758	-382.6066284179688	518.282470703125	367.5128173828125	-166.7779235839844	572.683837890625	31.64301300048828	-346.5307312011719	543.6702880859375	59.3640251159668	-392.8796081542969	473.2662963867188	41.75193786621094	-326.1184692382812	380.0449523925781	146.8949432373047	-439.5421142578125	
444	4.43	519.006103515625	1002.548095703125	-154.4749450683594	651.343017578125	993.0331420898438	-270.6996154785156	589.341796875	1053.95654296875	-210.7014923095703	758.8715209960938	1252.330810546875	-17.3271484375	581.5146484375	1188.026000976562	-224.6408233642578	622.7061767578125	1454.600219726562	-177.7188873291016	740.4907836914062	1367.210205078125	-41.04891586303711	524.8804931640625	1316.937622070312	-180.1019897460938	680.3484497070312	1418.864990234375	-259.4140930175781	801.1947631835938	1427.191650390625	-235.4857330322266	838.72607421875	1311.131103515625	-319.6756286621094	865.3369140625	1102.025390625	-357.0275573730469	762.7966918945312	1079.54052734375	-327.0296936035156	912.6741943359375	860.2568359375	-263.6419372558594	901.8837890625	852.180419921875	-346.9886474609375	890.51708984375	993.0062255859375	-358.3372497558594	913.8478393554688	675.1107177734375	-251.1405639648438	930.4573364257812	772.094482421875	-327.8428955078125	936.8279418945312	778.2982177734375	-257.1036987304688	530.3806762695312	1419.145751953125	-20.12100601196289	470.2521362304688	1354.238647460938	7.034017086029053	397.744384765625	1099.606811523438	2.294111490249634	484.0655212402344	1070.223876953125	-39.50740814208984	539.3681640625	863.9843139648438	103.0016555786133	458.7706604003906	837.4656372070312	83.57633972167969	400.4067993164062	1015.704284667969	23.53062629699707	581.9584350585938	678.6200561523438	96.28350830078125	567.5958862304688	763.5887451171875	122.5786437988281	492.1895446777344	750.9729614257812	113.1553344726562	740.22314453125	1645.979370117188	-155.9404144287109	627.23876953125	1649.754638671875	27.66095352172852	750.7913208007812	1672.308227539062	20.34616470336914	606.381103515625	1614.61279296875	-139.7134704589844	790.8494262695312	933.5353393554688	-240.7177276611328	494.0703735351562	927.1041259765625	-58.47091674804688	590.3352661132812	939.5064697265625	26.90488433837891	811.8811645507812	942.7026977539062	-121.0123519897461	874.214111328125	513.4124755859375	-34.01670074462891	867.6045532226562	635.4320678710938	-119.527458190918	934.99267578125	35.55201721191406	-67.3599853515625	917.3762817382812	266.389404296875	-55.70758438110352	975.7835083007812	53.55044555664062	130.9598236083984	913.2978515625	49.22104263305664	99.61274719238281	994.3133544921875	32.30604934692383	23.26168060302734	848.372802734375	34.19296264648438	-98.77979278564453	571.5147094726562	475.8910217285156	-93.08226013183594	548.0986328125	739.3667602539062	-22.25568962097168	386.2566833496094	109.372932434082	-377.6165466308594	525.3607788085938	368.7472229003906	-154.5203094482422	573.9171752929688	31.47416687011719	-343.4587707519531	546.8059692382812	63.06069183349609	-388.2447204589844	474.9149780273438	42.26881408691406	-324.0069885253906	386.9751892089844	157.1712493896484	-432.1699829101562	
445	4.44	525.789306640625	1003.916809082031	-148.7585296630859	659.14892578125	994.7685546875	-263.4141845703125	596.813232421875	1055.636108398438	-204.2531127929688	764.9200439453125	1253.857421875	-9.018807411193848	589.833740234375	1189.3798828125	-218.6042327880859	631.45849609375	1456.000366210938	-171.6880493164062	747.0572509765625	1368.751953125	-33.18964767456055	533.2658081054688	1318.620239257812	-175.2169494628906	690.3064575195312	1420.061767578125	-252.3338012695312	810.7572021484375	1428.364501953125	-226.67578125	849.7777709960938	1312.211547851562	-310.0491333007812	876.969970703125	1103.042846679688	-346.4631042480469	774.0369262695312	1080.568725585938	-317.9143981933594	923.0675659179688	861.1355590820312	-252.5937194824219	913.44140625	853.257568359375	-336.1178588867188	902.1988525390625	994.0582885742188	-347.4385681152344	923.911376953125	676.0286254882812	-240.5688018798828	941.677490234375	773.0401611328125	-316.6737060546875	947.157958984375	779.13427734375	-245.918212890625	536.8477783203125	1421.221313476562	-15.39189147949219	476.3179321289062	1356.42626953125	10.97923469543457	403.4006958007812	1102.240234375	4.452210426330566	490.2813110351562	1072.705200195312	-35.97848129272461	540.640869140625	864.0634765625	105.5331115722656	459.9175415039062	838.9799194335938	84.66004943847656	404.8002319335938	1018.263793945312	25.02745056152344	580.0210571289062	677.9287719726562	97.34687042236328	566.9654541015625	762.9048461914062	124.4054870605469	491.5232849121094	751.6994018554688	113.9626312255859	748.2136840820312	1647.583129882812	-148.5044097900391	632.42138671875	1651.101318359375	33.41796875	756.0136108398438	1673.768188476562	28.00551795959473	614.1896362304688	1616.017944335938	-134.3050079345703	798.0311279296875	935.2348022460938	-232.4652099609375	499.782470703125	928.154296875	-52.92002868652344	595.2118530273438	941.1296997070312	33.13515472412109	818.069580078125	943.97314453125	-112.3816680908203	879.7208251953125	513.505126953125	-27.41735649108887	873.9100952148438	636.737548828125	-111.7601013183594	935.7496948242188	35.08946990966797	-67.01214599609375	920.7869873046875	266.0317077636719	-52.28368759155273	977.1551513671875	49.78402709960938	131.4578704833984	914.5407104492188	47.22111511230469	100.1826705932617	995.40380859375	30.31239891052246	23.39262390136719	849.0916137695312	34.9093132019043	-98.44937896728516	579.914306640625	475.4769287109375	-78.41646575927734	554.419921875	740.3291015625	-13.78711414337158	391.3289489746094	117.2367553710938	-371.8109436035156	532.7925415039062	370.0153503417969	-141.4252624511719	575.52001953125	31.41924095153809	-338.7205810546875	550.511474609375	67.21626281738281	-382.189208984375	476.8172607421875	43.65113067626953	-320.9691162109375	394.5271911621094	167.6194915771484	-423.986083984375	
